<?xml version="1.0" encoding="UTF-8" standalone="no"?>
<svg width="49px" height="55px" viewBox="0 0 49 55" version="1.1" xmlns="http://www.w3.org/2000/svg" xmlns:xlink="http://www.w3.org/1999/xlink">
    <!-- Generator: Sketch 50.2 (55047) - http://www.bohemiancoding.com/sketch -->
    <title>thumb-up-outline-symbol</title>
    <desc>Created with Sketch.</desc>
    <defs></defs>
    <g id="Page-1" stroke="none" stroke-width="1" fill="none" fill-rule="evenodd">
        <g id="mobile-003" transform="translate(-183.000000, -438.000000)" fill="#955385" fill-rule="nonzero">
            <g id="thumb-up-outline-symbol" transform="translate(182.000000, 438.794118)">
                <path d="M46.8441176,26.0647059 C44.9264706,24.2191176 42.2176471,24.0073529 40.3455882,24.0073529 C39.3838235,24.0073529 38.4529412,24.0735294 37.575,24.1382353 C37.5073529,24.1382353 37.375,24.1 37.2602941,24.0602941 C37.0764706,24.0044118 36.8558824,23.9367647 36.6058824,23.9235294 C35.7147059,23.7308824 35.0205882,23.5441176 34.3705882,23.0308824 C33.0441176,21.85 31.8808824,20.3779412 30.7544118,18.9558824 L29.9455882,17.9441176 C28.4720588,16.1632353 26.6661765,13.8014706 25.7647059,11.2617647 C25.2897059,9.99264706 25.0955882,8.64852941 25.1632353,7.02352941 C25.1720588,6.71323529 25.1926471,6.41470588 25.2073529,6.12352941 C25.275,4.94264706 25.3397059,3.82794118 24.9544118,2.68088235 C24.4102941,0.976470588 23.0691176,0 21.2735294,0 C20.0647059,0 18.7955882,0.458823529 17.8308824,1.225 C15.4117647,2.90735294 13.8573529,6.09558824 13.6661765,9.76323529 C13.5676471,11.8191176 14.1941176,13.5867647 14.8,15.2941176 C15.3279412,16.7838235 15.8279412,18.1867647 15.8220588,19.7058824 C15.8161765,22.0088235 13.8264706,22.65 11.0117647,23.3029412 C10.7044118,23.375 10.4,23.4455882 10.1617647,23.5073529 C9.83970588,23.5661765 9.51176471,23.6205882 9.17941176,23.6764706 C7.06764706,24.0264706 4.67647059,24.4279412 2.94411765,26.0779412 C1.63676471,27.3764706 1.01470588,29.5191176 1.36029412,31.5382353 C1.60882353,32.9941176 2.32647059,34.1926471 3.36323529,34.9044118 C2.71029412,37.3808824 3.92352941,40.2661765 6.27647059,41.8058824 C6.05147059,42.9264706 6.26176471,44.1926471 6.88529412,45.3764706 C7.58529412,46.7 8.69264706,47.7352941 9.93088235,48.2279412 C9.93382353,50.4970588 11.4823529,52.4735294 13.9205882,53.1617647 C14.5985294,53.3 15.3338235,53.3661765 16.1691176,53.3661765 C17.4044118,53.3661765 18.6397059,53.2220588 19.8338235,53.0882353 C20.2338235,53.0426471 20.6294118,52.9985294 21.0897059,52.9470588 C21.7941176,52.8029412 22.5294118,52.7117647 23.2691176,52.6161765 C24.7941176,52.4205882 26.3661765,52.2191176 27.7911765,51.6044118 C28.9455882,51.0897059 29.9661765,50.3470588 30.9470588,49.6308824 C31.2676471,49.3985294 31.5823529,49.1691176 31.9058824,48.9411765 C32.2235294,48.7147059 32.5455882,48.4161765 32.8720588,48.1058824 C33.4397059,47.5720588 34.0235294,47.0205882 34.5897059,46.9117647 C35.0941176,46.8147059 35.5735294,46.7617647 36.0382353,46.7132353 C36.5588235,46.6558824 37.0602941,46.6014706 37.5544118,46.4985294 L37.7985294,46.4985294 C38.3191176,46.4985294 38.8911765,46.5294118 39.4852941,46.5676471 C40.1602941,46.6073529 40.8632353,46.6514706 41.5588235,46.6514706 C43.2720588,46.6514706 45.4191176,46.4338235 46.8029412,44.7294118 C48.8426471,42.3088235 49.1352941,38.6205882 49.15,34.9985294 L49.15,34.8411765 C49.1838235,32.1838235 49.2058824,28.1647059 46.8441176,26.0647059 Z M39.0838235,40.6132353 C38.5544118,42.5294118 37.5220588,43.3191176 35.3367647,43.5205882 C34.6588235,43.5205882 33.825,43.5205882 33.0397059,44.0029412 C32.2073529,44.2323529 31.5382353,44.8647059 30.9397059,45.425 C30.7073529,45.6455882 30.4779412,45.8647059 30.2647059,46.0308824 C29.975,46.2411765 29.6808824,46.4647059 29.3779412,46.6911765 C28.4735294,47.3779412 27.5338235,48.0867647 26.6955882,48.4985294 C26.1852941,48.6279412 25.6102941,48.7544118 25.0308824,48.8867647 L23.9132353,49.1397059 C21.5705882,49.5617647 19.1426471,49.7838235 16.8573529,49.9867647 C16.0897059,49.9867647 15.2955882,49.9867647 14.4985294,49.7735294 C14.0485294,49.7161765 13.7176471,49.5117647 13.5088235,49.1647059 C13.2205882,48.6882353 13.1941176,47.9779412 13.4264706,47.3573529 C13.6147059,46.9294118 13.5794118,46.4647059 13.3323529,46.0852941 C12.9558824,45.5029412 12.1985294,45.25 11.6176471,45.25 L11.5411765,45.25 L11.4661765,45.2647059 C11.3970588,45.2823529 11.3308824,45.2882353 11.2647059,45.2882353 C10.7897059,45.2882353 10.3014706,44.8911765 9.95735294,44.2338235 C9.525,43.3985294 9.46617647,42.3867647 9.77941176,41.9382353 C10.1411765,41.5132353 10.2,40.8955882 9.93676471,40.3264706 C9.70441176,39.8264706 9.28235294,39.5 8.81029412,39.4382353 C7.70147059,39.0617647 6.98382353,38.3661765 6.67647059,37.3867647 C6.45,36.5602941 6.51029412,35.6147059 6.89117647,35.1602941 C7.25441176,34.5573529 7.33823529,33.8529412 7.11617647,33.2911765 C6.93235294,32.8294118 6.55294118,32.4926471 5.98382353,32.3323529 C4.92794118,32.1397059 4.61176471,31.2838235 4.53088235,30.5882353 C4.35882353,29.3132353 5.33676471,28.3426471 6.25735294,27.8823529 C7.66764706,27.0926471 9.39411765,26.8102941 11.0661765,26.5367647 C11.9617647,26.3897059 12.8867647,26.2411765 13.7632353,26.0147059 C16.7588235,25.2367647 18.9102941,22.8941176 19.1176471,20.1852941 C19.2632353,18.1941176 18.6338235,16.3632353 18.0279412,14.6 C17.5117647,13.1029412 17.0264706,11.6911765 16.9852941,10.2029412 C16.9426471,8.76617647 17.3588235,7.18088235 18.1573529,5.66617647 C18.9220588,4.47205882 20.2088235,3.18676471 21.2308824,3.18676471 C21.2823529,3.18676471 21.3352941,3.19117647 21.3779412,3.19852941 C22.0088235,3.28970588 21.9897059,4.48823529 21.9205882,5.60441176 L21.9044118,5.88088235 C21.8117647,7.71470588 21.7720588,9.25882353 22.1882353,11.0470588 C22.775,13.4735294 24.1558824,15.4426471 25.4867647,17.3470588 C25.7764706,17.7617647 26.0691176,18.1779412 26.3632353,18.6117647 C27.6161765,20.4161765 29.2102941,22.3794118 30.9441176,24.2617647 C31.2705882,24.6573529 31.6308824,25.0941176 32.0676471,25.3955882 C32.1852941,25.6102941 32.3426471,25.7220588 32.4941176,25.7764706 C33.5720588,26.6044118 34.725,27.0852941 36.1882353,27.3235294 C37.2485294,27.525 38.1602941,27.6926471 38.6205882,28.4676471 C39.5426471,30.1014706 39.5705882,32.3514706 39.5897059,34.1485294 L39.5941176,34.5764706 C39.625,36.4867647 39.6073529,38.6867647 39.0838235,40.6132353 Z M45.8485294,34.2882353 L45.8455882,34.9941176 C45.8588235,37.7661765 45.6852941,40.5955882 44.3323529,42.5573529 C43.8779412,43.2529412 42.9691176,43.3044118 41.7323529,43.3044118 L41.6,43.3044118 C42.2985294,41.8852941 42.5691176,40.2338235 42.7367647,38.7352941 C43.0264706,36.0073529 42.9970588,33.3382353 42.6455882,30.8014706 C42.4941176,29.6897059 42.2617647,28.475 41.7323529,27.3970588 C42.7352941,27.5073529 43.7647059,27.7838235 44.55,28.4529412 C45.8911765,29.5691176 45.8647059,32.4102941 45.8485294,34.2882353 Z" id="Shape"></path>
            </g>
        </g>
    </g>
</svg>